<svg xmlns="http://www.w3.org/2000/svg" width="48" height="48"><rect id="backgroundrect" width="100%" height="100%" x="0" y="0" fill="none" stroke="none"/><g class="currentLayer" style=""><title>Layer 1</title><path fill="#ffffff" d="M24 5A19 19 0 1 0 24 43A19 19 0 1 0 24 5Z" id="svg_1" class="selected" stroke="none" fill-opacity="1" opacity="1" stroke-width="67"/><path fill="#fff" d="M26.572,29.036h4.917l0.772-4.995h-5.69v-2.73c0-2.075,0.678-3.915,2.619-3.915h3.119v-4.359c-0.548-0.074-1.707-0.236-3.897-0.236c-4.573,0-7.254,2.415-7.254,7.917v3.323h-4.701v4.995h4.701v13.729C22.089,42.905,23.032,43,24,43c0.875,0,1.729-0.08,2.572-0.194V29.036z" id="svg_2"/></g></svg>