<svg xmlns="http://www.w3.org/2000/svg" xmlns:xlink="http://www.w3.org/1999/xlink" width="48" height="48"><rect id="backgroundrect" width="100%" height="100%" x="0" y="0" fill="none" stroke="none"/>
<defs>
<radialGradient id="radial0" gradientUnits="userSpaceOnUse" cx="69.44499969482422" cy="150.62542724609375" fx="69.44499969482422" fy="150.62542724609375" r="160.88807678222656" gradientTransform="matrix(0.27907,0,0,0.27907,0,0)">
<stop offset="0" style="stop-color:rgb(100%,86.666667%,33.333334%);stop-opacity:1;"/>
<stop offset="0.328" style="stop-color:rgb(100%,32.941177%,24.705882%);stop-opacity:1;"/>
<stop offset="0.348" style="stop-color:rgb(98.823529%,32.156864%,27.058825%);stop-opacity:1;"/>
<stop offset="0.504" style="stop-color:rgb(90.196079%,27.843139%,44.313726%);stop-opacity:1;"/>
<stop offset="0.643" style="stop-color:rgb(83.529413%,24.313726%,56.862748%);stop-opacity:1;"/>
<stop offset="0.761" style="stop-color:rgb(80.000001%,22.352941%,64.313728%);stop-opacity:1;"/>
<stop offset="0.841" style="stop-color:rgb(78.431374%,21.568628%,67.058825%);stop-opacity:1;"/>
</radialGradient>
<radialGradient id="radial1" gradientUnits="userSpaceOnUse" cx="42.23316955566406" cy="19.852750778198242" fx="42.23316955566406" fy="19.852750778198242" r="106.82991790771484" gradientTransform="matrix(0.27907,0,0,0.27907,0,0)">
<stop offset="0" style="stop-color:rgb(25.490198%,40.784314%,78.823531%);stop-opacity:1;"/>
<stop offset="0.999" style="stop-color:rgb(25.490198%,40.784314%,78.823531%);stop-opacity:0;"/>
</radialGradient>
</defs>

<g class="currentLayer" style=""><title>Layer 1</title><g id="surface16816026" class="selected" fill="#ffffff" fill-opacity="1">
<path style="stroke: none; fill-rule: nonzero;" d="M 34.015625 41.988281 L 14.015625 42.007812 C 9.617188 42.011719 6.015625 38.417969 6.007812 34.015625 L 5.988281 14.015625 C 5.984375 9.617188 9.582031 6.015625 13.980469 6.007812 L 33.980469 5.988281 C 38.382812 5.984375 41.984375 9.582031 41.988281 13.980469 L 42.007812 33.980469 C 42.015625 38.382812 38.417969 41.984375 34.015625 41.988281 Z M 34.015625 41.988281 " id="svg_1" fill="#ffffff" fill-opacity="1"/>
<path style="stroke: none; fill-rule: nonzero;" d="M 34.015625 41.988281 L 14.015625 42.007812 C 9.617188 42.011719 6.015625 38.417969 6.007812 34.015625 L 5.988281 14.015625 C 5.984375 9.617188 9.582031 6.015625 13.980469 6.007812 L 33.980469 5.988281 C 38.382812 5.984375 41.984375 9.582031 41.988281 13.980469 L 42.007812 33.980469 C 42.015625 38.382812 38.417969 41.984375 34.015625 41.988281 Z M 34.015625 41.988281 " id="svg_2" fill="#ffffff" fill-opacity="1"/>
<path style="stroke: none; fill-rule: nonzero;" d="M 24 31 C 20.140625 31 17 27.859375 17 24 C 17 20.140625 20.140625 17 24 17 C 27.859375 17 31 20.140625 31 24 C 31 27.859375 27.859375 31 24 31 Z M 24 19 C 21.242188 19 19 21.242188 19 24 C 19 26.757812 21.242188 29 24 29 C 26.757812 29 29 26.757812 29 24 C 29 21.242188 26.757812 19 24 19 Z M 24 19 " id="svg_3" fill="#ffffff" fill-opacity="1"/>
<path style="stroke: none; fill-rule: nonzero;" d="M 33 16.5 C 33 17.328125 32.328125 18 31.5 18 C 30.671875 18 30 17.328125 30 16.5 C 30 15.671875 30.671875 15 31.5 15 C 32.328125 15 33 15.671875 33 16.5 Z M 33 16.5 " id="svg_4" fill="#ffffff" fill-opacity="1"/>
<path style="stroke: none; fill-rule: nonzero;" d="M 30 37 L 18 37 C 14.140625 37 11 33.859375 11 30 L 11 18 C 11 14.140625 14.140625 11 18 11 L 30 11 C 33.859375 11 37 14.140625 37 18 L 37 30 C 37 33.859375 33.859375 37 30 37 Z M 18 13 C 15.242188 13 13 15.242188 13 18 L 13 30 C 13 32.757812 15.242188 35 18 35 L 30 35 C 32.757812 35 35 32.757812 35 30 L 35 18 C 35 15.242188 32.757812 13 30 13 Z M 18 13 " id="svg_5" fill="#ffffff" fill-opacity="1"/>
</g></g></svg>